<svg width="42" height="42" viewBox="0 0 42 42" fill="none" xmlns="http://www.w3.org/2000/svg">
<path d="M26.9978 5.5H13.0301C11.0782 5.5 9.5 7.08891 9.5 9.04388V32.9521C9.5 34.907 11.0782 36.496 13.0301 36.496H30.9699C32.9218 36.496 34.5 34.907 34.5 32.9521V12.9121C34.4993 12.1088 34.182 11.3393 33.617 10.7711L29.1208 6.37688C28.571 5.82238 27.8013 5.50071 26.9978 5.5ZM26.9965 7C27.4001 7.00036 27.7871 7.16209 28.0724 7.44965L32.5534 11.8288C32.839 12.116 32.9996 12.5057 33 12.9121V32.9521C33 34.0809 32.0911 34.996 30.9699 34.996H13.0301C11.9089 34.996 11 34.0809 11 32.9521V9.04388C11 7.91507 11.9089 7 13.0301 7H26.9965Z" fill="#FF7C03"/>
<path d="M40 3.75C40.4142 3.75 40.75 4.08579 40.75 4.5C40.75 4.8797 40.4678 5.19349 40.1018 5.24315L40 5.25H38C37.5858 5.25 37.25 4.91421 37.25 4.5C37.25 4.1203 37.5322 3.80651 37.8982 3.75685L38 3.75H40ZM35 3.75C35.4142 3.75 35.75 4.08579 35.75 4.5C35.75 4.8797 35.4678 5.19349 35.1018 5.24315L35 5.25H33C32.5858 5.25 32.25 4.91421 32.25 4.5C32.25 4.1203 32.5322 3.80651 32.8982 3.75685L33 3.75H35ZM36.5 0.25C36.8797 0.25 37.1935 0.532154 37.2432 0.898229L37.25 1V3C37.25 3.41421 36.9142 3.75 36.5 3.75C36.1203 3.75 35.8065 3.46785 35.7568 3.10177L35.75 3V1C35.75 0.585786 36.0858 0.25 36.5 0.25ZM36.5 5.25C36.8797 5.25 37.1935 5.53215 37.2432 5.89823L37.25 6V8C37.25 8.41421 36.9142 8.75 36.5 8.75C36.1203 8.75 35.8065 8.46785 35.7568 8.10177L35.75 8V6C35.75 5.58579 36.0858 5.25 36.5 5.25Z" fill="#FF7C03"/>
<path d="M41 15.25C41.4142 15.25 41.75 15.5858 41.75 16C41.75 16.3797 41.4678 16.6935 41.1018 16.7432L41 16.75H40.2C39.7858 16.75 39.45 16.4142 39.45 16C39.45 15.6203 39.7322 15.3065 40.0982 15.2568L40.2 15.25H41ZM37.8 15.25C38.2142 15.25 38.55 15.5858 38.55 16C38.55 16.3797 38.2678 16.6935 37.9018 16.7432L37.8 16.75H37C36.5858 16.75 36.25 16.4142 36.25 16C36.25 15.6203 36.5322 15.3065 36.8982 15.2568L37 15.25H37.8ZM39 13.25C39.3797 13.25 39.6935 13.5322 39.7432 13.8982L39.75 14V14.8C39.75 15.2142 39.4142 15.55 39 15.55C38.6203 15.55 38.3065 15.2678 38.2568 14.9018L38.25 14.8V14C38.25 13.5858 38.5858 13.25 39 13.25ZM39 16.45C39.3797 16.45 39.6935 16.7322 39.7432 17.0982L39.75 17.2V18C39.75 18.4142 39.4142 18.75 39 18.75C38.6203 18.75 38.3065 18.4678 38.2568 18.1018L38.25 18V17.2C38.25 16.7858 38.5858 16.45 39 16.45Z" fill="#FF7C03"/>
<path d="M2 35.25C2.41421 35.25 2.75 35.5858 2.75 36C2.75 36.3797 2.46785 36.6935 2.10177 36.7432L2 36.75H1C0.585786 36.75 0.25 36.4142 0.25 36C0.25 35.6203 0.532154 35.3065 0.898229 35.2568L1 35.25H2ZM4 32.25C4.3797 32.25 4.69349 32.5322 4.74315 32.8982L4.75 33V34C4.75 34.4142 4.41421 34.75 4 34.75C3.6203 34.75 3.30651 34.4678 3.25685 34.1018L3.25 34V33C3.25 32.5858 3.58579 32.25 4 32.25ZM7 35.25C7.41421 35.25 7.75 35.5858 7.75 36C7.75 36.3797 7.46785 36.6935 7.10177 36.7432L7 36.75H6C5.58579 36.75 5.25 36.4142 5.25 36C5.25 35.6203 5.53215 35.3065 5.89823 35.2568L6 35.25H7ZM4 37.25C4.3797 37.25 4.69349 37.5322 4.74315 37.8982L4.75 38V39C4.75 39.4142 4.41421 39.75 4 39.75C3.6203 39.75 3.30651 39.4678 3.25685 39.1018L3.25 39V38C3.25 37.5858 3.58579 37.25 4 37.25ZM16.25 28H28.25C28.5261 28 28.75 28.2239 28.75 28.5C28.75 28.7761 28.5261 29 28.25 29H16.25C15.9739 29 15.75 28.7761 15.75 28.5C15.75 28.2239 15.9739 28 16.25 28ZM16.25 31H28.25C28.5261 31 28.75 31.2239 28.75 31.5C28.75 31.7761 28.5261 32 28.25 32H16.25C15.9739 32 15.75 31.7761 15.75 31.5C15.75 31.2239 15.9739 31 16.25 31Z" fill="#FF7C03"/>
<path d="M16.1974 25C15.8765 24.9998 15.5659 24.8825 15.3198 24.6685C15.068 24.4394 14.9529 24.088 15.0178 23.7467C15.1828 22.8551 16.5979 21.8008 18.9019 20.8527C19.3055 20.1019 19.6686 19.3283 19.9897 18.5356C20.3456 17.655 20.6495 16.8238 20.9469 15.9216C20.1716 14.1545 19.9565 12.3462 20.4245 11.5162C20.6033 11.2047 20.923 11.0099 21.2719 11C22.3288 11 22.7062 12.0701 22.7062 13.0719C22.6458 14.2678 22.4162 15.4479 22.0249 16.5743C22.2665 17.0132 22.5311 17.4378 22.8176 17.8464C23.1963 18.3926 23.6237 18.9004 24.0941 19.3633C24.8033 19.2412 25.5204 19.1756 26.2392 19.1672C27.4569 19.1672 28.3205 19.4139 28.7421 19.8811C28.9101 20.0817 29.0018 20.3392 29 20.6052C29.001 20.7305 28.9799 20.855 28.9376 20.9723C28.818 21.2971 28.4877 21.6847 27.5897 21.6854C26.2058 21.62 24.8929 21.0295 23.8997 20.0258C23.3053 20.1329 22.6598 20.2804 21.98 20.4647C21.3666 20.6322 20.7601 20.8221 20.1773 21.028C19.3601 22.5229 17.7763 24.9973 16.2461 24.998L16.1974 25ZM15.6071 23.8636C15.6028 23.8872 15.6011 23.9111 15.6018 23.935C15.6065 24.1344 15.7628 24.2937 15.9547 24.2947C16.5122 24.2943 17.4305 23.3259 18.3866 21.7513C16.7681 22.4998 15.7105 23.3004 15.6071 23.8636ZM26.7431 20.95C26.8498 20.9758 26.9589 20.989 27.0685 20.9892C27.4516 20.9892 27.7317 20.8111 27.7819 20.5365C27.8657 20.0917 27.5229 19.9211 27.2213 19.856C26.3776 19.736 25.5213 19.7471 24.6807 19.8889C25.2885 20.3913 25.9914 20.7523 26.7431 20.95ZM21.179 18.9193C21.0103 19.339 20.8073 19.7912 20.5872 20.2376C21.0081 20.1003 21.4176 19.9787 21.8286 19.8673C22.3492 19.7238 22.8648 19.5994 23.3622 19.4982L23.3079 19.4335C22.9566 19.0492 22.6301 18.6413 22.3303 18.2124C22.1363 17.9355 21.9513 17.6523 21.769 17.3451C21.6044 17.8272 21.4104 18.3442 21.179 18.9193ZM20.9416 11.8316C20.6774 12.3023 20.6959 13.5297 21.2266 15.0112C21.4824 14.1726 21.6365 13.3041 21.6856 12.4258C21.6856 12.0611 21.6101 11.6209 21.2602 11.6198C21.1445 11.6247 21.0373 11.684 20.9688 11.781L20.9416 11.8316Z" fill="#FF7C03"/>
</svg>
