<svg width="42" height="42" viewBox="0 0 42 42" fill="none" xmlns="http://www.w3.org/2000/svg">
<g clip-path="url(#clip0_151_105)">
<path d="M19.6934 38.4482C22.2998 39.6636 24.9892 39.7498 27.7165 38.7053C30.3057 37.7137 32.2481 35.9778 33.5151 33.5236L34.4714 36.3245L34.5148 36.4266C34.6819 36.7499 35.0632 36.902 35.4153 36.7684C35.8026 36.6215 36.008 36.1845 35.8741 35.7924L34.3811 31.4243L34.3623 31.3494C34.2394 30.9933 33.8785 30.7978 33.5232 30.8766L33.417 30.9085L29.0302 32.5886L28.9293 32.6359C28.609 32.8159 28.4515 33.21 28.5744 33.566C28.7096 33.9577 29.1329 34.155 29.5198 34.0068L32.1163 33.0134C31.025 35.0366 29.404 36.4532 27.2269 37.287C24.8714 38.1892 22.59 38.116 20.338 37.0659C18.1818 36.0604 16.6823 34.4443 15.8128 32.189C15.4357 31.1997 13.9786 31.5915 14.4289 32.773C15.4357 35.3847 17.1991 37.285 19.6934 38.4482Z" fill="#FF7C03"/>
<path d="M41.5 15.1117V24.6159C41.5 26.211 40.2022 27.5 38.6064 27.5H29.3936C27.7978 27.5 26.5 26.211 26.5 24.6159V12.3841C26.5 10.789 27.7978 9.5 29.3936 9.5L35.9712 9.51969C36.643 9.52028 37.2885 9.78642 37.7653 10.2606L40.7662 13.331C41.2292 13.7901 41.4994 14.4366 41.5 15.1117ZM40 15.113C39.9998 14.8378 39.8895 14.5739 39.6934 14.3794L36.7076 11.3242C36.5118 11.1295 36.2461 11.0199 35.969 11.0197L29.3936 11C28.6239 11 28 11.6197 28 12.3841V24.6159C28 25.3803 28.6239 26 29.3936 26H38.6064C39.3761 26 40 25.3803 40 24.6159V15.113Z" fill="#FF7C03"/>
<path fill-rule="evenodd" clip-rule="evenodd" d="M10.4796 2C10.9868 2 11.4744 2.175 11.8493 2.48L11.9847 2.601L12.5393 3.12938C12.8576 3.43269 12.8699 3.93666 12.5665 4.25503C12.4145 4.41465 12.203 4.50408 11.9826 4.502C11.8493 4.5 11.7223 4.45 11.6262 4.359L10.8845 3.656C10.806 3.58 10.6934 3.526 10.5715 3.507L10.4796 3.5H2.43784C1.98539 3.5 1.61145 3.83 1.5567 4.258L1.54947 4.368V17.632C1.54947 18.076 1.88932 18.44 2.32627 18.493L2.34794 18.4932C2.76324 18.497 3.09791 18.8347 3.09791 19.25V19.3399C3.09791 19.7045 2.80239 20 2.43784 20C1.14558 20 0.0909024 19.025 0.00516491 17.794L0 17.632V4.368C0 3.116 1.00096 2.089 2.27049 2.005L2.43784 2H10.4796Z" fill="#FF7C03"/>
<path fill-rule="evenodd" clip-rule="evenodd" d="M14.4796 6C14.9868 6 15.4744 6.175 15.8493 6.48L15.9847 6.601L16.5393 7.12938C16.8576 7.43269 16.8699 7.93666 16.5665 8.25504C16.4145 8.41465 16.203 8.50408 15.9826 8.502C15.8493 8.5 15.7223 8.45 15.6262 8.359L14.8845 7.656C14.806 7.58 14.6934 7.526 14.5715 7.507L14.4796 7.5H6.43784C5.98539 7.5 5.61145 7.83 5.5567 8.258L5.54947 8.368V21.632C5.54947 22.076 5.88932 22.44 6.32627 22.493L6.34794 22.4932C6.76324 22.497 7.09791 22.8347 7.09791 23.25V23.3399C7.09791 23.7045 6.80239 24 6.43784 24C5.14558 24 4.0909 23.025 4.00517 21.794L4 21.632V8.368C4 7.116 5.00096 6.089 6.27049 6.005L6.43784 6H14.4796Z" fill="#FF7C03"/>
<path fill-rule="evenodd" clip-rule="evenodd" d="M18.3268 11.5H10.4023C9.95643 11.5 9.58795 11.83 9.534 12.258L9.52687 12.368V25.632C9.52687 26.076 9.86177 26.44 10.2923 26.493L10.4023 26.5H20.5987C21.0436 26.5 21.4131 26.17 21.467 25.743L21.4731 25.635L21.4568 14.525C21.4568 14.401 21.4171 14.282 21.353 14.191L21.3001 14.128L18.7258 11.656C18.6484 11.58 18.5375 11.526 18.4173 11.507L18.3268 11.5ZM18.3268 10C18.8265 10 19.307 10.175 19.6765 10.48L19.8099 10.601L22.3669 13.056C22.718 13.402 22.9318 13.858 22.9756 14.341L22.9837 14.523L23 25.632C23 26.884 22.0147 27.911 20.7636 27.994L20.5987 28H10.4023C9.12887 28 8.08958 27.024 8.00509 25.794L8 25.632V12.368C8 11.116 8.98636 10.089 10.2374 10.005L10.4023 10H18.3268Z" fill="#FF7C03"/>
</g>
<defs>
<clipPath id="clip0_151_105">
<rect width="42" height="42" fill="white"/>
</clipPath>
</defs>
</svg>
