<svg width="42" height="42" viewBox="0 0 42 42" fill="none" xmlns="http://www.w3.org/2000/svg">
<path d="M21.666 7.5H11.967C10.911 7.501 10.044 8.336 10.005 9.392L10 33.456C10 34.585 10.909 35.5 12.03 35.5H29.97C31.091 35.5 32 34.585 32 33.456V16.367C32 15.96 32.329 15.629 32.736 15.628H32.759C33.168 15.626 33.5 15.958 33.5 16.367V33.456C33.5 35.411 31.922 37 29.97 37H12.03C10.078 37 8.5 35.411 8.5 33.456V9.544C8.5 7.589 10.078 6 12.03 6H21.666C22.089 6 22.429 6.349 22.416 6.772C22.404 7.177 22.072 7.5 21.666 7.5Z" fill="#FF7C03"/>
<path d="M16.6803 29.75C16.3048 29.75 16 30.086 16 30.5C16 30.914 16.3048 31.25 16.6803 31.25H25.3197C25.6952 31.25 26 30.914 26 30.5C26 30.086 25.6952 29.75 25.3197 29.75H16.6803Z" fill="#FF7C03"/>
<path d="M24.751 24.1491L21.752 27.1371C21.37 27.5181 20.765 27.5471 20.348 27.2261L20.248 27.1381L17.25 24.1491C16.956 23.8571 16.955 23.3821 17.248 23.0881C17.513 22.8221 17.93 22.7961 18.224 23.0141L18.308 23.0861L20.237 25.0081L20.236 15.5001C20.236 15.0861 20.572 14.7501 20.986 14.7501C21.366 14.7501 21.679 15.0321 21.729 15.3981L21.736 15.5001L21.737 25.0351L23.692 23.0861C23.959 22.8201 24.376 22.7961 24.669 23.0151L24.753 23.0871C25.019 23.3551 25.042 23.7711 24.824 24.0651L24.751 24.1491Z" fill="#FF7C03"/>
<path d="M34.4844 1.00233C32.5039 1.06201 31.1335 2.23536 30.4753 3.71245L30.4373 3.79897C30.276 3.77982 30.115 3.76883 29.9535 3.76681L29.7517 3.76947C27.7478 3.84705 26.1713 5.43955 26.1478 7.3534L26.1503 7.47897L26.1024 7.49561C25.0481 7.88559 24.263 9.02686 24.2502 10.1024C24.2325 11.5412 25.2184 12.8153 26.9469 12.9471L38.1718 12.9493C40.1042 12.9493 41.7404 11.6834 41.7701 9.27497L41.7667 9.07533C41.6904 7.42008 40.4253 5.98454 38.9107 5.42113L38.8523 5.40097L38.8524 5.43522C38.8927 3.03212 37.0575 1.0403 34.7351 1.00073L34.4844 1.00233ZM26.7797 8.86273L26.8671 8.85608L26.9487 8.86554C27.4503 8.90916 27.8413 8.45966 27.7515 7.98239L27.727 7.8867C27.6729 7.72012 27.6461 7.54522 27.6477 7.36971C27.6618 6.22397 28.6631 5.2512 29.935 5.2667C30.1994 5.27 30.4621 5.31004 30.7158 5.38579C31.1205 5.50662 31.5451 5.26961 31.6547 4.86172C32 3.57604 33.0605 2.47247 34.7096 2.50051C36.1873 2.52569 37.3793 3.81944 37.3527 5.40685C37.3498 5.54026 37.3347 5.67641 37.3075 5.80983C37.2228 6.22502 37.4986 6.62785 37.9163 6.69903C39.1249 6.90498 40.2848 8.0554 40.2702 9.25664C40.2518 10.7529 39.3517 11.4493 38.1718 11.4493H27.0039C26.1804 11.3843 25.7416 10.8171 25.7501 10.1205C25.7564 9.59309 26.2784 8.93732 26.7797 8.86273Z" fill="#FF7C03"/>
</svg>
