<svg width="42" height="42" viewBox="0 0 42 42" fill="none" xmlns="http://www.w3.org/2000/svg">
<path d="M39.8 5H36.6V1.8C36.6 1.4 36.3 1 35.8 1C35.3 1 35 1.3 35 1.8V5H31.8C31.4 5 31 5.3 31 5.8C31 6.3 31.3 6.6 31.8 6.6H35V9.8C35 10.2 35.3 10.6 35.8 10.6C36.3 10.6 36.6 10.3 36.6 9.8V6.6H39.8C40.2 6.6 40.6 6.3 40.6 5.8C40.6 5.3 40.2 5 39.8 5Z" fill="#FF7C03"/>
<path d="M25.4978 7C26.3013 7.00071 27.071 7.32243 27.6208 7.87699L32.117 12.2718C32.682 12.8401 32.9993 13.6097 33 14.4131V34.4557C33 36.4109 31.4218 38 29.4699 38H11.5301C9.57818 38 8 36.4109 8 34.4557V10.5443C8 8.58912 9.57818 7 11.5301 7H25.4978ZM25.4965 8.5002H11.5301C10.4089 8.5002 9.5 9.41539 9.5 10.5443V34.4557C9.5 35.5846 10.4089 36.4998 11.5301 36.4998H29.4699C30.5911 36.4998 31.5 35.5846 31.5 34.4557V14.4131C31.4996 14.0066 31.339 13.6169 31.0534 13.3297L26.5724 8.94991C26.2871 8.66231 25.9001 8.50055 25.4965 8.5002Z" fill="#FF7C03"/>
<path d="M14.5088 30H26.7193C27.0003 30 27.2281 30.2286 27.2281 30.5106C27.2281 30.7927 27.0003 31.0213 26.7193 31.0213H14.5088C14.2278 31.0213 14 30.7927 14 30.5106C14 30.2286 14.2278 30 14.5088 30ZM14.5088 33.0638H26.7193C27.0003 33.0638 27.2281 33.2925 27.2281 33.5745C27.2281 33.8565 27.0003 34.0851 26.7193 34.0851H14.5088C14.2278 34.0851 14 33.8565 14 33.5745C14 33.2925 14.2278 33.0638 14.5088 33.0638Z" fill="#FF7C03"/>
<path fill-rule="evenodd" clip-rule="evenodd" d="M16.8762 23.5157C15.8958 25.0646 14.9308 26.0436 14.3668 26.0436C14.2628 26.0436 14.1773 26.013 14.1151 25.9552C14.0017 25.8514 13.9598 25.7386 13.9862 25.6014C14.0934 25.0464 15.2105 24.2459 16.8762 23.5157ZM21.5888 21.3003C21.1677 21.3871 20.7326 21.4878 20.2914 21.6021C19.9744 21.6845 19.6528 21.7744 19.3311 21.8705C19.5021 21.5275 19.6589 21.1875 19.7957 20.8642C19.9759 20.4373 20.1453 20.0104 20.3007 19.5927C20.4374 19.8031 20.5788 20.0074 20.7233 20.204C21.0092 20.5928 21.3171 20.9646 21.6232 21.2924L21.5888 21.3003ZM19.4119 13.9285C19.4911 13.7943 19.6186 13.7135 19.7506 13.7135C20.122 13.7135 20.2028 14.1526 20.2028 14.5201C20.2059 15.1056 20.0256 16.0388 19.7164 17.0709C19.0934 15.4516 19.1804 14.3173 19.4119 13.9285ZM26.3884 22.3904C26.3339 22.6664 26.0434 22.8447 25.6457 22.8447C25.5368 22.8447 25.4235 22.831 25.3101 22.8036C24.5798 22.6329 23.8805 22.2867 23.1829 21.747C23.8371 21.6493 24.3886 21.6281 24.7569 21.6281C25.1765 21.6281 25.5602 21.6571 25.8057 21.7074C26.1211 21.7714 26.4769 21.9421 26.3884 22.3904ZM27.4449 21.6601C26.9803 21.1708 26.0916 20.9221 24.8035 20.9221C24.1695 20.9221 23.4533 20.9832 22.6701 21.1036C22.246 20.7027 21.8327 20.23 21.4411 19.6964C21.1615 19.3167 20.9035 18.9234 20.6721 18.5239C21.1257 17.1227 21.3557 15.9853 21.3557 15.1421C21.3557 14.1069 20.9377 13 19.7647 13C19.3793 13 18.9846 13.2287 18.7826 13.5688C18.2823 14.4118 18.4828 16.1469 19.2814 17.9125C19.0033 18.7236 18.7003 19.5134 18.3289 20.3885C18.0167 21.1279 17.6453 21.8842 17.2522 22.5825C16.0559 23.0553 13.5122 24.2018 13.2699 25.4687C13.1983 25.8485 13.3211 26.2067 13.618 26.478C13.7096 26.5634 14.0592 26.8409 14.6543 26.8409C16.1862 26.8409 17.7136 24.7597 18.7423 22.9682C19.3265 22.7731 19.9231 22.5963 20.5167 22.4422C21.1677 22.2731 21.797 22.1343 22.3905 22.0306C24.0127 23.4196 25.4546 23.6299 26.177 23.6299C27.1699 23.6299 27.5412 23.2076 27.6764 22.8523C27.8552 22.389 27.681 21.9087 27.4449 21.6601Z" fill="#FF7C03"/>
</svg>
