<svg width="42" height="42" viewBox="0 0 42 42" fill="none" xmlns="http://www.w3.org/2000/svg">
<path d="M29.4685 12.4144L29.3769 12.3515C29.061 12.1674 28.6496 12.2374 28.4143 12.5315C28.1556 12.8549 28.208 13.3269 28.5314 13.5856L31.0312 15.5856L31.1265 15.6506C31.3902 15.8021 31.7248 15.7804 31.9683 15.5857L34.4685 13.5857L34.5499 13.5101C34.7989 13.2423 34.8209 12.8256 34.5856 12.5315C34.3269 12.208 33.8549 12.1556 33.5315 12.4143L32.25 13.44L32.25 11.021L32.246 10.7869C32.1323 7.44495 29.5948 4.74999 26.448 4.74999H24.5L24.3982 4.75683C24.0321 4.8065 23.75 5.12029 23.75 5.49999C23.75 5.9142 24.0857 6.24999 24.5 6.24999H26.448L26.6493 6.25515C28.9177 6.37167 30.75 8.44761 30.75 11.021L30.75 13.44L29.4685 12.4144Z" fill="#FF7C03"/>
<path d="M15.25 36.5C15.25 36.0858 14.9142 35.75 14.5 35.75H12.5519L12.3507 35.7448C10.0823 35.6283 8.25 33.5524 8.25 30.979L8.251 28.561L9.53147 29.5856L9.62309 29.6485C9.93895 29.8326 10.3504 29.7626 10.5856 29.4685C10.8444 29.1451 10.792 28.6731 10.4686 28.4144L7.96878 26.4144L7.87352 26.3494C7.6098 26.1979 7.27522 26.2195 7.03174 26.4143L4.53152 28.4143L4.45005 28.4899C4.20109 28.7576 4.17912 29.1744 4.41434 29.4685C4.67309 29.7919 5.14505 29.8444 5.46851 29.5857L6.75 28.562V30.979L6.75398 31.2131C6.86769 34.555 9.40519 37.25 12.5519 37.25H14.5L14.6018 37.2432C14.9678 37.1935 15.25 36.8797 15.25 36.5Z" fill="#FF7C03"/>
<path d="M13.3883 1.5H3.88414C2.28899 1.5 1 2.79775 1 4.39355V20.6064C1 22.2022 2.28899 23.5 3.88414 23.5H16.1159C17.711 23.5 19 22.2022 19 20.6064L18.9803 7.0288C18.9797 6.357 18.7136 5.71149 18.2394 5.23467L15.169 2.2338C14.7099 1.77081 14.0634 1.5006 13.3883 1.5ZM13.387 3C13.6622 3.00024 13.9261 3.11052 14.1206 3.30658L17.1758 6.29239C17.3705 6.48821 17.4801 6.75387 17.4803 7.03097L17.5 20.6064C17.5 21.3761 16.8803 22 16.1159 22H3.88414C3.1197 22 2.5 21.3761 2.5 20.6064V4.39355C2.5 3.62391 3.1197 3 3.88414 3H13.387Z" fill="#FF7C03"/>
<path d="M42 27.1117V36.6159C42 38.211 40.7022 39.5 39.1064 39.5H22.8936C21.2978 39.5 20 38.211 20 36.6159V24.3841C20 22.789 21.2978 21.5 22.8936 21.5L36.4712 21.5197C37.143 21.5203 37.7885 21.7864 38.2653 22.2606L41.2662 25.331C41.7292 25.7901 41.9994 26.4366 42 27.1117ZM40.5 27.113C40.4998 26.8378 40.3895 26.5739 40.1934 26.3794L37.2076 23.3242C37.0118 23.1295 36.7461 23.0199 36.469 23.0197L22.8936 23C22.1239 23 21.5 23.6197 21.5 24.3841V36.6159C21.5 37.3803 22.1239 38 22.8936 38H39.1064C39.8761 38 40.5 37.3803 40.5 36.6159V27.113Z" fill="#FF7C03"/>
<path d="M31.75 30.25V28C31.75 27.586 31.414 27.25 31 27.25C30.586 27.25 30.25 27.586 30.25 28V30.25H28C27.586 30.25 27.25 30.586 27.25 31C27.25 31.414 27.586 31.75 28 31.75H30.25V34C30.25 34.414 30.586 34.75 31 34.75C31.414 34.75 31.75 34.414 31.75 34V31.75H34C34.414 31.75 34.75 31.414 34.75 31C34.75 30.586 34.414 30.25 34 30.25H31.75Z" fill="#FF7C03"/>
<path d="M6.01465 8.05005H11.0146C11.2908 8.05005 11.5146 8.27391 11.5146 8.55005C11.5146 8.82619 11.2908 9.05005 11.0146 9.05005H6.01465C5.73851 9.05005 5.51465 8.82619 5.51465 8.55005C5.51465 8.27391 5.73851 8.05005 6.01465 8.05005ZM6.01465 11.05H14.0146C14.2908 11.05 14.5146 11.2739 14.5146 11.55C14.5146 11.8262 14.2908 12.05 14.0146 12.05H6.01465C5.73851 12.05 5.51465 11.8262 5.51465 11.55C5.51465 11.2739 5.73851 11.05 6.01465 11.05ZM6.01465 14.05H14.0146C14.2908 14.05 14.5146 14.2739 14.5146 14.55C14.5146 14.8262 14.2908 15.05 14.0146 15.05H6.01465C5.73851 15.05 5.51465 14.8262 5.51465 14.55C5.51465 14.2739 5.73851 14.05 6.01465 14.05Z" fill="#FF7C03"/>
</svg>
