<svg width="42" height="42" viewBox="0 0 42 42" fill="none" xmlns="http://www.w3.org/2000/svg">
<path d="M11.5 11C11.777 11 12 11.224 12 11.5C12 11.746 11.824 11.95 11.59 11.992L11.5 12H8.5C8.224 12 8 11.776 8 11.5C8 11.254 8.177 11.05 8.41 11.008L8.5 11H11.5Z" fill="#FF7C03"/>
<path fill-rule="evenodd" clip-rule="evenodd" d="M17.5011 25.7502C16.5545 27.1864 15.6229 28.0941 15.0783 28.0941C14.9778 28.0941 14.8953 28.0657 14.8353 28.0121C14.7258 27.9159 14.6853 27.8113 14.7108 27.684C14.8143 27.1694 15.8929 26.4273 17.5011 25.7502ZM22.0512 23.6961C21.6447 23.7766 21.2246 23.8699 20.7986 23.9759C20.4925 24.0523 20.182 24.1357 19.8714 24.2248C20.0365 23.9067 20.1879 23.5915 20.3199 23.2917C20.494 22.8959 20.6575 22.5001 20.8076 22.1128C20.9396 22.3078 21.0761 22.4973 21.2156 22.6796C21.4916 23.0401 21.7889 23.3848 22.0844 23.6887L22.0512 23.6961ZM19.9494 16.8609C20.0259 16.7365 20.149 16.6616 20.2765 16.6616C20.635 16.6616 20.713 17.0687 20.713 17.4094C20.7161 17.9523 20.542 18.8175 20.2435 19.7745C19.6419 18.2732 19.7259 17.2214 19.9494 16.8609ZM26.6853 24.7068C26.6328 24.9627 26.3523 25.128 25.9682 25.128C25.8631 25.128 25.7537 25.1154 25.6442 25.0899C24.9391 24.9317 24.2639 24.6106 23.5904 24.1102C24.222 24.0197 24.7545 24 25.1102 24C25.5152 24 25.8857 24.0269 26.1227 24.0735C26.4273 24.1329 26.7708 24.2912 26.6853 24.7068ZM27.7054 24.0297C27.2568 23.5759 26.3988 23.3454 25.1551 23.3454C24.543 23.3454 23.8515 23.4021 23.0953 23.5137C22.6857 23.142 22.2867 22.7037 21.9087 22.2089C21.6387 21.8569 21.3896 21.4922 21.1662 21.1217C21.6041 19.8226 21.8262 18.768 21.8262 17.9862C21.8262 17.0263 21.4226 16 20.29 16C19.9179 16 19.5369 16.2121 19.3418 16.5274C18.8588 17.3091 19.0523 18.9178 19.8235 20.5548C19.5549 21.3069 19.2623 22.0393 18.9038 22.8506C18.6023 23.5362 18.2438 24.2374 17.8642 24.8849C16.7091 25.3233 14.2532 26.3863 14.0192 27.5611C13.9501 27.9131 14.0687 28.2452 14.3553 28.4969C14.4437 28.576 14.7813 28.8333 15.3559 28.8333C16.835 28.8333 18.3097 26.9036 19.3029 25.2426C19.8669 25.0616 20.443 24.8977 21.0161 24.7549C21.6447 24.598 22.2523 24.4694 22.8253 24.3732C24.3915 25.6611 25.7837 25.8561 26.4813 25.8561C27.4399 25.8561 27.7984 25.4645 27.929 25.1351C28.1015 24.7055 27.9334 24.2601 27.7054 24.0297Z" fill="#FF7C03"/>
<path fill-rule="evenodd" clip-rule="evenodd" d="M5.523 13.717H36.478V9.576H5.523V13.717ZM27.1605 31.619H5.522V14.703H36.376V24.188C36.376 24.644 36.751 25.011 37.207 25C37.648 24.989 38 24.629 38 24.188V9.183C37.898 8.493 37.391 8 36.681 8H5.218C4.507 8.098 4 8.59 4 9.281V31.817C4.102 32.507 4.609 33 5.319 33H27.1605C27.5419 33 27.851 32.6909 27.851 32.3095C27.851 31.9281 27.5419 31.619 27.1605 31.619Z" fill="#FF7C03"/>
<path fill-rule="evenodd" clip-rule="evenodd" d="M31.602 24.9519L39.987 33.5229L35.008 33.5219L34.89 33.5319C34.735 33.5559 34.59 33.6299 34.477 33.7419L31.599 36.6249L31.602 24.9519ZM30.1 37.3709L30.105 37.4909C30.197 38.4719 31.412 38.9369 32.133 38.2139L35.318 35.0219L40.72 35.0239C41.776 35.0239 42.309 33.7519 41.572 32.9979L32.144 23.3609C31.397 22.5969 30.102 23.1269 30.102 24.1939L30.1 37.3709ZM32.681 4C33.391 4 33.898 4.493 34 5.183V5.81727C34 6.23727 33.659 6.57827 33.239 6.57827C32.818 6.57827 32.477 6.23727 32.477 5.81627L32.478 5.576H1.523L1.501 27.808C1.5 28.222 1.165 28.558 0.75 28.558C0.336 28.558 0 28.222 0 27.807V5.281C0 4.59 0.507 4.098 1.218 4H32.681Z" fill="#FF7C03"/>
</svg>
