<svg width="74" height="72" viewBox="0 0 74 72" fill="none" xmlns="http://www.w3.org/2000/svg">
<path fill-rule="evenodd" clip-rule="evenodd" d="M31.5 10.125V31.5C31.5 32.6935 31.0259 33.8381 30.182 34.682C29.3381 35.5259 28.1935 36 27 36H24.75V33.75H27C27.5967 33.75 28.169 33.5129 28.591 33.091C29.0129 32.669 29.25 32.0967 29.25 31.5V10.125H24.75C23.8549 10.125 22.9964 9.76942 22.3635 9.13649C21.7306 8.50355 21.375 7.64511 21.375 6.75V2.25H9C8.40326 2.25 7.83097 2.48705 7.40901 2.90901C6.98705 3.33097 6.75 3.90326 6.75 4.5V24.75H4.5V4.5C4.5 3.30653 4.97411 2.16193 5.81802 1.31802C6.66193 0.474106 7.80653 0 9 0L21.375 0L31.5 10.125ZM3.6 26.6625H0V35.6603H1.77975V32.6408H3.5865C4.23225 32.6408 4.78125 32.5125 5.2335 32.2515C5.69025 31.9882 6.039 31.6327 6.27525 31.185C6.52047 30.7152 6.64496 30.1917 6.6375 29.6617C6.6375 29.0992 6.51825 28.5907 6.282 28.1385C6.04701 27.6889 5.68775 27.3164 5.247 27.0653C4.797 26.7952 4.25025 26.6625 3.6 26.6625ZM4.82625 29.6617C4.83436 29.9582 4.76864 30.252 4.635 30.5168C4.51511 30.7472 4.32848 30.9362 4.0995 31.059C3.83757 31.1886 3.54786 31.2519 3.25575 31.2435H1.773V28.08H3.258C3.7485 28.08 4.13325 28.215 4.41 28.4873C4.68675 28.7618 4.82625 29.1532 4.82625 29.6617ZM7.5645 26.6625V35.6603H10.8495C11.7517 35.6603 12.501 35.4803 13.095 35.127C13.6961 34.7674 14.1655 34.2238 14.4338 33.5768C14.7262 32.9018 14.8748 32.0872 14.8748 31.1377C14.8748 30.1927 14.7285 29.3872 14.4338 28.719C14.1687 28.0794 13.7038 27.5426 13.1085 27.189C12.5145 26.838 11.7607 26.6625 10.8472 26.6625H7.5645ZM9.34425 28.1138H10.611C11.169 28.1138 11.6235 28.2263 11.9812 28.4558C12.3526 28.6986 12.6328 29.0579 12.7778 29.4772C12.9555 29.9295 13.0433 30.4942 13.0433 31.1715C13.0502 31.6203 12.9988 32.068 12.8903 32.5035C12.8101 32.847 12.66 33.1702 12.4493 33.453C12.2535 33.7053 11.9941 33.901 11.6978 34.02C11.3505 34.1499 10.9817 34.2125 10.611 34.2045H9.34425V28.1138ZM17.766 32.0805V35.6603H15.9885V26.6625H21.7215V28.1318H17.766V30.645H21.3795V32.0805H17.766Z" fill="#3B98CC"/>
<path d="M60.8686 53.2663H62.3802L60.6367 60.9969L58.3705 50.1272H54.7283L52.0923 60.9969L50.117 50.1272H46.3086L50.1739 67.6228H53.8948L56.5023 57.2759L58.8342 67.6228H62.2642L66.6939 50.1272H60.8686V53.2663Z" fill="#3B98CC"/>
<path d="M70.3709 44.8291C69.6119 43.7944 68.5531 42.5825 67.3916 41.4209C66.23 40.2594 65.0181 39.2006 63.9834 38.4416C62.2203 37.1487 61.365 37 60.875 37H43.9219C42.4147 37 41.1875 38.2272 41.1875 39.7344V69.2656C41.1875 70.7728 42.4147 72 43.9219 72H69.0781C70.5853 72 71.8125 70.7728 71.8125 69.2656V47.9375C71.8125 47.4475 71.6637 46.5922 70.3709 44.8291ZM65.8428 42.9697C66.8928 44.0197 67.7153 44.9647 68.3234 45.75H63.0603V40.4891C63.8456 41.0972 64.795 41.9197 65.8428 42.9697ZM69.625 69.2656C69.625 69.5631 69.3756 69.8125 69.0781 69.8125H43.9219C43.7774 69.8108 43.6393 69.7526 43.5371 69.6504C43.4349 69.5482 43.3767 69.4101 43.375 69.2656V39.7344C43.375 39.4391 43.6266 39.1875 43.9219 39.1875H60.875V46.8438C60.875 47.1338 60.9902 47.412 61.1954 47.6171C61.4005 47.8223 61.6787 47.9375 61.9688 47.9375H69.625V69.2656Z" fill="#3B98CC"/>
<path d="M52 25L47 30L42 25" stroke="#3B98CC" stroke-width="2" stroke-linecap="round" stroke-linejoin="round"/>
<path d="M47 30L47 22C47 16.477 42.523 12 37 12L36 12" stroke="#3B98CC" stroke-width="2" stroke-linecap="round" stroke-linejoin="round"/>
</svg>
